<?xml version="1.0" encoding="UTF-8"?>
<svg width="129" height="11" viewBox="0 0 129 11" fill="none" xmlns="http://www.w3.org/2000/svg">
<path opacity="0.9" d="M0.682252 5.411C0.682252 8.336 2.71025 10.299 6.33725 10.299C9.96425 10.299 11.9403 8.349 11.9403 5.32C11.9403 1.706 9.09325 0.535999 6.25925 0.535999C3.42525 0.535999 0.682252 1.862 0.682252 5.411ZM3.04825 5.476C3.04825 3.89 4.03625 2.187 6.31125 2.187C8.52125 2.187 9.60025 3.786 9.60025 5.424C9.60025 6.061 9.32725 8.648 6.31125 8.648C3.94525 8.648 3.04825 6.958 3.04825 5.476ZM24.8944 0.822H22.4244L19.6684 7.595L16.9254 0.822H14.3904L18.5374 10H20.7734L24.8944 0.822ZM36.8353 10V8.362H30.3223V6.178H36.3673V4.54H30.3223V2.473H36.5753V0.822H28.0213V10H36.8353ZM51.031 10L48.236 6.165C49.172 5.996 49.965 5.71 50.381 4.774C50.615 4.254 50.628 3.799 50.628 3.565C50.628 2.356 49.978 1.342 48.795 0.991C48.418 0.874 48.067 0.822 47.274 0.822H40.956V10H43.244V6.308H45.87L48.314 10H51.031ZM43.244 2.434H46.936C47.573 2.434 48.301 2.616 48.301 3.591C48.301 4.579 47.456 4.683 47.027 4.683H43.244V2.434ZM62.3868 2.499V0.822H53.2738V2.499H56.6798V10H58.9938V2.499H62.3868ZM75.8095 10V0.822H73.5085V4.358H67.9705V0.822H65.6695V10H67.9705V6.061H73.5085V10H75.8095ZM89.3095 10V8.362H82.7965V6.178H88.8415V4.54H82.7965V2.473H89.0495V0.822H80.4955V10H89.3095ZM92.4227 7.699C93.3197 9.389 94.7627 10.286 97.4407 10.286C99.7677 10.286 102.108 9.727 102.108 7.205C102.108 5.164 100.21 4.8 99.0137 4.592C98.3507 4.475 96.7127 4.228 96.0627 4.033C95.6597 3.903 95.3347 3.708 95.3347 3.24C95.3347 2.2 96.9077 2.174 97.3367 2.174C98.2727 2.174 99.5467 2.343 100.041 3.279L102.212 2.733C101.484 1.433 100.093 0.535999 97.4017 0.535999C95.1267 0.535999 93.1117 1.368 93.1117 3.409C93.1117 4.8 94.1387 5.398 94.5547 5.593C95.2957 5.944 96.1927 6.074 97.8957 6.334C99.0267 6.503 99.9107 6.633 99.9107 7.387C99.9107 8.544 98.0647 8.596 97.6227 8.596C96.4917 8.596 95.0617 8.323 94.5157 7.166L92.4227 7.699ZM114.874 10V8.362H108.361V6.178H114.406V4.54H108.361V2.473H114.614V0.822H106.06V10H114.874ZM128.797 10L124.364 0.822H121.881L117.448 10H119.957L120.737 8.271H125.443L126.223 10H128.797ZM124.702 6.646H121.478L123.103 3.058L124.702 6.646Z" fill="black"/>
</svg>
